<svg width="1920" height="1080" xmlns="http://www.w3.org/2000/svg"><g><path d="M-119,-47L-121,37L35,84Z" fill="#81c8f9" stroke="#81c8f9"/><path d="M-119,-47L35,84L81,-116Z" fill="#82c9f9" stroke="#82c9f9"/><path d="M81,-116L35,84L183,-44Z" fill="#7fc7f9" stroke="#7fc7f9"/><path d="M81,-116L183,-44L406,-25Z" fill="#7dc6f9" stroke="#7dc6f9"/><path d="M81,-116L406,-25L550,-48Z" fill="#79c4f9" stroke="#79c4f9"/><path d="M81,-116L550,-48L637,-72Z" fill="#78c4f9" stroke="#78c4f9"/><path d="M81,-116L637,-72L854,-80Z" fill="#75c3fa" stroke="#75c3fa"/><path d="M81,-116L854,-80L1481,-99Z" fill="#6dbffa" stroke="#6dbffa"/><path d="M183,-44L35,84L203,128Z" fill="#78c4f9" stroke="#78c4f9"/><path d="M183,-44L203,128L362,26Z" fill="#76c3f9" stroke="#76c3f9"/><path d="M183,-44L362,26L406,-25Z" fill="#77c3f9" stroke="#77c3f9"/><path d="M406,-25L362,26L495,128Z" fill="#6fc0f9" stroke="#6fc0f9"/><path d="M406,-25L495,128L550,-48Z" fill="#6fc0fa" stroke="#6fc0fa"/><path d="M550,-48L495,128L661,66Z" fill="#6abdfa" stroke="#6abdfa"/><path d="M550,-48L661,66L637,-72Z" fill="#6ebffa" stroke="#6ebffa"/><path d="M637,-72L661,66L854,-80Z" fill="#6bbefa" stroke="#6bbefa"/><path d="M854,-80L661,66L774,127Z" fill="#65bafa" stroke="#65bafa"/><path d="M854,-80L774,127L945,16Z" fill="#63bafa" stroke="#63bafa"/><path d="M854,-80L945,16L946,-79Z" fill="#66bbfa" stroke="#66bbfa"/><path d="M854,-80L946,-79L1481,-99Z" fill="#62bafa" stroke="#62bafa"/><path d="M946,-79L945,16L1107,-46Z" fill="#62b9fa" stroke="#62b9fa"/><path d="M946,-79L1107,-46L1242,-52Z" fill="#60b9fa" stroke="#60b9fa"/><path d="M946,-79L1242,-52L1481,-99Z" fill="#5eb7fa" stroke="#5eb7fa"/><path d="M1107,-46L945,16L1145,128Z" fill="#5bb6fa" stroke="#5bb6fa"/><path d="M1107,-46L1145,128L1242,-52Z" fill="#5ab5fa" stroke="#5ab5fa"/><path d="M1242,-52L1145,128L1309,131Z" fill="#53b2fa" stroke="#53b2fa"/><path d="M1242,-52L1309,131L1421,122Z" fill="#50b1fa" stroke="#50b1fa"/><path d="M1242,-52L1421,122L1481,-99Z" fill="#53b3fa" stroke="#53b3fa"/><path d="M1481,-99L1421,122L1564,-77Z" fill="#51b1fa" stroke="#51b1fa"/><path d="M1481,-99L1564,-77L2028,-85Z" fill="#4fb0fa" stroke="#4fb0fa"/><path d="M1564,-77L1421,122L1623,91Z" fill="#4baefa" stroke="#4baefa"/><path d="M1564,-77L1623,91L1750,27Z" fill="#49aefa" stroke="#49aefa"/><path d="M1564,-77L1750,27L1767,-29Z" fill="#4baefa" stroke="#4baefa"/><path d="M1564,-77L1767,-29L1921,-57Z" fill="#4baefa" stroke="#4baefa"/><path d="M1564,-77L1921,-57L2028,-85Z" fill="#4baefa" stroke="#4baefa"/><path d="M1767,-29L1750,27L1905,107Z" fill="#43abfa" stroke="#43abfa"/><path d="M1767,-29L1905,107L1921,-57Z" fill="#45abfa" stroke="#45abfa"/><path d="M1921,-57L1905,107L1984,83Z" fill="#43a8fa" stroke="#43a8fa"/><path d="M1921,-57L1984,83L2028,-85Z" fill="#47a9fa" stroke="#47a9fa"/><path d="M2028,-85L1984,83L2059,405Z" fill="#3ca4fa" stroke="#3ca4fa"/><path d="M2028,-85L2059,405L2077,484Z" fill="#339ffa" stroke="#339ffa"/><path d="M-121,37L-112,400L-60,263Z" fill="#73c1f9" stroke="#73c1f9"/><path d="M-121,37L-60,263L35,84Z" fill="#79c4f9" stroke="#79c4f9"/><path d="M35,84L-60,263L29,235Z" fill="#73c1f9" stroke="#73c1f9"/><path d="M35,84L29,235L203,128Z" fill="#73c1f9" stroke="#73c1f9"/><path d="M203,128L29,235L201,210Z" fill="#6ebff9" stroke="#6ebff9"/><path d="M203,128L201,210L402,197Z" fill="#6bbef9" stroke="#6bbef9"/><path d="M203,128L402,197L362,26Z" fill="#6ebff9" stroke="#6ebff9"/><path d="M362,26L402,197L495,128Z" fill="#6abdf9" stroke="#6abdf9"/><path d="M495,128L402,197L489,276Z" fill="#63baf9" stroke="#63baf9"/><path d="M495,128L489,276L700,225Z" fill="#5fb8fa" stroke="#5fb8fa"/><path d="M495,128L700,225L661,66Z" fill="#62bafa" stroke="#62bafa"/><path d="M661,66L700,225L774,127Z" fill="#5fb8fa" stroke="#5fb8fa"/><path d="M774,127L700,225L819,182Z" fill="#5bb6fa" stroke="#5bb6fa"/><path d="M774,127L819,182L945,16Z" fill="#5db7fa" stroke="#5db7fa"/><path d="M945,16L819,182L929,238Z" fill="#59b5fa" stroke="#59b5fa"/><path d="M945,16L929,238L1145,128Z" fill="#56b4fa" stroke="#56b4fa"/><path d="M1145,128L929,238L1081,273Z" fill="#4fb0fa" stroke="#4fb0fa"/><path d="M1145,128L1081,273L1257,236Z" fill="#4caffa" stroke="#4caffa"/><path d="M1145,128L1257,236L1309,131Z" fill="#4caffa" stroke="#4caffa"/><path d="M1309,131L1257,236L1445,172Z" fill="#48adfa" stroke="#48adfa"/><path d="M1309,131L1445,172L1421,122Z" fill="#49aefa" stroke="#49aefa"/><path d="M1421,122L1445,172L1623,91Z" fill="#46acfa" stroke="#46acfa"/><path d="M1623,91L1445,172L1525,222Z" fill="#43aafa" stroke="#43aafa"/><path d="M1623,91L1525,222L1700,179Z" fill="#40a9fa" stroke="#40a9fa"/><path d="M1623,91L1700,179L1750,27Z" fill="#42aafa" stroke="#42aafa"/><path d="M1750,27L1700,179L1823,166Z" fill="#3ea8fa" stroke="#3ea8fa"/><path d="M1750,27L1823,166L1905,107Z" fill="#3fa8fa" stroke="#3fa8fa"/><path d="M1905,107L1823,166L1977,273Z" fill="#39a4fa" stroke="#39a4fa"/><path d="M1905,107L1977,273L1984,83Z" fill="#3ba4fa" stroke="#3ba4fa"/><path d="M1984,83L1977,273L2059,405Z" fill="#34a0fa" stroke="#34a0fa"/><path d="M-60,263L-112,400L126,322Z" fill="#6abdf9" stroke="#6abdf9"/><path d="M-60,263L126,322L29,235Z" fill="#6cbef9" stroke="#6cbef9"/><path d="M29,235L126,322L201,210Z" fill="#6abdf9" stroke="#6abdf9"/><path d="M201,210L126,322L197,384Z" fill="#66bbf9" stroke="#66bbf9"/><path d="M201,210L197,384L367,364Z" fill="#62b9f9" stroke="#62b9f9"/><path d="M201,210L367,364L402,197Z" fill="#64baf9" stroke="#64baf9"/><path d="M402,197L367,364L489,276Z" fill="#5fb8f9" stroke="#5fb8f9"/><path d="M489,276L367,364L577,405Z" fill="#59b5f9" stroke="#59b5f9"/><path d="M489,276L577,405L700,225Z" fill="#58b5fa" stroke="#58b5fa"/><path d="M700,225L577,405L719,434Z" fill="#52b1fa" stroke="#52b1fa"/><path d="M700,225L719,434L824,433Z" fill="#4eb0fa" stroke="#4eb0fa"/><path d="M700,225L824,433L819,182Z" fill="#53b2fa" stroke="#53b2fa"/><path d="M819,182L824,433L929,238Z" fill="#51b1fa" stroke="#51b1fa"/><path d="M929,238L824,433L969,365Z" fill="#4aaefa" stroke="#4aaefa"/><path d="M929,238L969,365L1081,273Z" fill="#4baffa" stroke="#4baffa"/><path d="M1081,273L969,365L1169,335Z" fill="#47acfa" stroke="#47acfa"/><path d="M1081,273L1169,335L1257,236Z" fill="#46acfa" stroke="#46acfa"/><path d="M1257,236L1169,335L1256,345Z" fill="#43abfa" stroke="#43abfa"/><path d="M1257,236L1256,345L1375,418Z" fill="#3fa9fa" stroke="#3fa9fa"/><path d="M1257,236L1375,418L1445,172Z" fill="#41aafa" stroke="#41aafa"/><path d="M1445,172L1375,418L1525,222Z" fill="#3ea8fa" stroke="#3ea8fa"/><path d="M1525,222L1375,418L1596,432Z" fill="#36a4fa" stroke="#36a4fa"/><path d="M1525,222L1596,432L1680,405Z" fill="#33a3fa" stroke="#33a3fa"/><path d="M1525,222L1680,405L1700,179Z" fill="#38a5fa" stroke="#38a5fa"/><path d="M1700,179L1680,405L1823,166Z" fill="#36a4fa" stroke="#36a4fa"/><path d="M1823,166L1680,405L1885,418Z" fill="#2fa1fa" stroke="#2fa1fa"/><path d="M1823,166L1885,418L1977,273Z" fill="#32a1fa" stroke="#32a1fa"/><path d="M1977,273L1885,418L2059,405Z" fill="#2c9dfa" stroke="#2c9dfa"/><path d="M-112,400L-80,927L-57,636Z" fill="#55b3f9" stroke="#55b3f9"/><path d="M-112,400L-57,636L-40,578Z" fill="#5db7f9" stroke="#5db7f9"/><path d="M-112,400L-40,578L78,555Z" fill="#5eb7f9" stroke="#5eb7f9"/><path d="M-112,400L78,555L126,322Z" fill="#62b9f9" stroke="#62b9f9"/><path d="M126,322L78,555L197,384Z" fill="#5fb8f9" stroke="#5fb8f9"/><path d="M197,384L78,555L223,528Z" fill="#59b5f9" stroke="#59b5f9"/><path d="M197,384L223,528L320,507Z" fill="#57b4f9" stroke="#57b4f9"/><path d="M197,384L320,507L367,364Z" fill="#5ab5f9" stroke="#5ab5f9"/><path d="M367,364L320,507L533,553Z" fill="#52b1f9" stroke="#52b1f9"/><path d="M367,364L533,553L577,405Z" fill="#52b2fa" stroke="#52b2fa"/><path d="M577,405L533,553L619,493Z" fill="#4caffa" stroke="#4caffa"/><path d="M577,405L619,493L719,434Z" fill="#4caffa" stroke="#4caffa"/><path d="M719,434L619,493L675,667Z" fill="#45acfa" stroke="#45acfa"/><path d="M719,434L675,667L835,498Z" fill="#43aafa" stroke="#43aafa"/><path d="M719,434L835,498L824,433Z" fill="#47acfa" stroke="#47acfa"/><path d="M824,433L835,498L969,365Z" fill="#46acfa" stroke="#46acfa"/><path d="M969,365L835,498L993,538Z" fill="#41aafa" stroke="#41aafa"/><path d="M969,365L993,538L1169,335Z" fill="#42a9fa" stroke="#42a9fa"/><path d="M1169,335L993,538L1120,577Z" fill="#3ba7fa" stroke="#3ba7fa"/><path d="M1169,335L1120,577L1279,567Z" fill="#37a5fa" stroke="#37a5fa"/><path d="M1169,335L1279,567L1256,345Z" fill="#3ba6fa" stroke="#3ba6fa"/><path d="M1256,345L1279,567L1375,418Z" fill="#36a4fa" stroke="#36a4fa"/><path d="M1375,418L1279,567L1415,488Z" fill="#32a2fa" stroke="#32a2fa"/><path d="M1375,418L1415,488L1596,432Z" fill="#31a2fa" stroke="#31a2fa"/><path d="M1596,432L1415,488L1629,517Z" fill="#2ca0fa" stroke="#2ca0fa"/><path d="M1596,432L1629,517L1700,484Z" fill="#299efa" stroke="#299efa"/><path d="M1596,432L1700,484L1680,405Z" fill="#2b9ffa" stroke="#2b9ffa"/><path d="M1680,405L1700,484L1822,501Z" fill="#279dfa" stroke="#279dfa"/><path d="M1680,405L1822,501L1885,418Z" fill="#279dfa" stroke="#279dfa"/><path d="M1885,418L1822,501L2077,484Z" fill="#259afa" stroke="#259afa"/><path d="M1885,418L2077,484L2059,405Z" fill="#279afa" stroke="#279afa"/><path d="M-40,578L-57,636L88,660Z" fill="#55b3f9" stroke="#55b3f9"/><path d="M-40,578L88,660L78,555Z" fill="#55b3f9" stroke="#55b3f9"/><path d="M78,555L88,660L223,528Z" fill="#53b2f9" stroke="#53b2f9"/><path d="M223,528L88,660L275,666Z" fill="#4fb0f9" stroke="#4fb0f9"/><path d="M223,528L275,666L320,507Z" fill="#50b0f9" stroke="#50b0f9"/><path d="M320,507L275,666L364,672Z" fill="#4baef9" stroke="#4baef9"/><path d="M320,507L364,672L485,642Z" fill="#49aef9" stroke="#49aef9"/><path d="M320,507L485,642L533,553Z" fill="#4aaef9" stroke="#4aaef9"/><path d="M533,553L485,642L675,667Z" fill="#43aafa" stroke="#43aafa"/><path d="M533,553L675,667L619,493Z" fill="#45abfa" stroke="#45abfa"/><path d="M835,498L675,667L799,695Z" fill="#3ca7fa" stroke="#3ca7fa"/><path d="M835,498L799,695L952,703Z" fill="#38a5fa" stroke="#38a5fa"/><path d="M835,498L952,703L993,538Z" fill="#39a6fa" stroke="#39a6fa"/><path d="M993,538L952,703L1120,577Z" fill="#35a4fa" stroke="#35a4fa"/><path d="M1120,577L952,703L1163,642Z" fill="#30a1fa" stroke="#30a1fa"/><path d="M1120,577L1163,642L1279,567Z" fill="#30a1fa" stroke="#30a1fa"/><path d="M1279,567L1163,642L1230,690Z" fill="#2ca0fa" stroke="#2ca0fa"/><path d="M1279,567L1230,690L1419,644Z" fill="#299efa" stroke="#299efa"/><path d="M1279,567L1419,644L1415,488Z" fill="#2c9ffa" stroke="#2c9ffa"/><path d="M1415,488L1419,644L1629,517Z" fill="#299efa" stroke="#299efa"/><path d="M1629,517L1419,644L1605,662Z" fill="#239bfa" stroke="#239bfa"/><path d="M1629,517L1605,662L1722,712Z" fill="#1e99fa" stroke="#1e99fa"/><path d="M1629,517L1722,712L1700,484Z" fill="#229afa" stroke="#229afa"/><path d="M1700,484L1722,712L1832,673Z" fill="#1b97fa" stroke="#1b97fa"/><path d="M1700,484L1832,673L1822,501Z" fill="#1f99fa" stroke="#1f99fa"/><path d="M1822,501L1832,673L2029,671Z" fill="#1b96fa" stroke="#1b96fa"/><path d="M1822,501L2029,671L2077,484Z" fill="#1f96fa" stroke="#1f96fa"/><path d="M2077,484L2029,671L2039,816Z" fill="#1892fa" stroke="#1892fa"/><path d="M2077,484L2039,816L2055,973Z" fill="#118efa" stroke="#118efa"/><path d="M2077,484L2055,973L2048,1291Z" fill="#0689fa" stroke="#0689fa"/><path d="M-57,636L-80,927L-58,869Z" fill="#4aaef9" stroke="#4aaef9"/><path d="M-57,636L-58,869L88,660Z" fill="#4fb0f9" stroke="#4fb0f9"/><path d="M88,660L-58,869L63,870Z" fill="#48adf9" stroke="#48adf9"/><path d="M88,660L63,870L270,788Z" fill="#46acf9" stroke="#46acf9"/><path d="M88,660L270,788L275,666Z" fill="#48adf9" stroke="#48adf9"/><path d="M275,666L270,788L364,672Z" fill="#45acf9" stroke="#45acf9"/><path d="M364,672L270,788L369,872Z" fill="#3fa9f9" stroke="#3fa9f9"/><path d="M364,672L369,872L550,785Z" fill="#3ca7f9" stroke="#3ca7f9"/><path d="M364,672L550,785L485,642Z" fill="#40a9f9" stroke="#40a9f9"/><path d="M485,642L550,785L675,667Z" fill="#3da7fa" stroke="#3da7fa"/><path d="M675,667L550,785L658,867Z" fill="#36a4fa" stroke="#36a4fa"/><path d="M675,667L658,867L799,695Z" fill="#35a4fa" stroke="#35a4fa"/><path d="M799,695L658,867L866,790Z" fill="#30a2fa" stroke="#30a2fa"/><path d="M799,695L866,790L952,703Z" fill="#31a2fa" stroke="#31a2fa"/><path d="M952,703L866,790L977,789Z" fill="#2da0fa" stroke="#2da0fa"/><path d="M952,703L977,789L1163,642Z" fill="#2da0fa" stroke="#2da0fa"/><path d="M1163,642L977,789L1176,797Z" fill="#289dfa" stroke="#289dfa"/><path d="M1163,642L1176,797L1230,690Z" fill="#289efa" stroke="#289efa"/><path d="M1230,690L1176,797L1248,805Z" fill="#239bfa" stroke="#239bfa"/><path d="M1230,690L1248,805L1419,644Z" fill="#249bfa" stroke="#249bfa"/><path d="M1419,644L1248,805L1480,771Z" fill="#1f9afa" stroke="#1f9afa"/><path d="M1419,644L1480,771L1605,662Z" fill="#1f99fa" stroke="#1f99fa"/><path d="M1605,662L1480,771L1614,787Z" fill="#1997fa" stroke="#1997fa"/><path d="M1605,662L1614,787L1722,712Z" fill="#1896fa" stroke="#1896fa"/><path d="M1722,712L1614,787L1784,863Z" fill="#1293fa" stroke="#1293fa"/><path d="M1722,712L1784,863L1827,785Z" fill="#0f92fa" stroke="#0f92fa"/><path d="M1722,712L1827,785L1832,673Z" fill="#1494fa" stroke="#1494fa"/><path d="M1832,673L1827,785L2029,671Z" fill="#1493fa" stroke="#1493fa"/><path d="M2029,671L1827,785L2039,816Z" fill="#1190fa" stroke="#1190fa"/><path d="M-58,869L-80,927L63,870Z" fill="#44abf9" stroke="#44abf9"/><path d="M63,870L-80,927L135,1033Z" fill="#3da8f9" stroke="#3da8f9"/><path d="M63,870L135,1033L220,1018Z" fill="#38a5f9" stroke="#38a5f9"/><path d="M63,870L220,1018L270,788Z" fill="#3ca7f9" stroke="#3ca7f9"/><path d="M270,788L220,1018L369,872Z" fill="#39a5f9" stroke="#39a5f9"/><path d="M369,872L220,1018L365,1026Z" fill="#32a2f9" stroke="#32a2f9"/><path d="M369,872L365,1026L579,944Z" fill="#30a1f9" stroke="#30a1f9"/><path d="M369,872L579,944L550,785Z" fill="#34a3fa" stroke="#34a3fa"/><path d="M550,785L579,944L658,867Z" fill="#31a1fa" stroke="#31a1fa"/><path d="M658,867L579,944L657,950Z" fill="#2c9ffa" stroke="#2c9ffa"/><path d="M658,867L657,950L812,1001Z" fill="#289dfa" stroke="#289dfa"/><path d="M658,867L812,1001L866,790Z" fill="#299efa" stroke="#299efa"/><path d="M866,790L812,1001L942,933Z" fill="#259cfa" stroke="#259cfa"/><path d="M866,790L942,933L977,789Z" fill="#289dfa" stroke="#289dfa"/><path d="M977,789L942,933L1160,991Z" fill="#209afa" stroke="#209afa"/><path d="M977,789L1160,991L1176,797Z" fill="#219afa" stroke="#219afa"/><path d="M1176,797L1160,991L1248,805Z" fill="#1d98fa" stroke="#1d98fa"/><path d="M1248,805L1160,991L1287,1023Z" fill="#1695fa" stroke="#1695fa"/><path d="M1248,805L1287,1023L1401,962Z" fill="#1594fa" stroke="#1594fa"/><path d="M1248,805L1401,962L1480,771Z" fill="#1996fa" stroke="#1996fa"/><path d="M1480,771L1401,962L1620,918Z" fill="#1293fa" stroke="#1293fa"/><path d="M1480,771L1620,918L1614,787Z" fill="#1394fa" stroke="#1394fa"/><path d="M1614,787L1620,918L1784,863Z" fill="#0e91fa" stroke="#0e91fa"/><path d="M1784,863L1620,918L1755,1034Z" fill="#078dfa" stroke="#078dfa"/><path d="M1784,863L1755,1034L1905,1008Z" fill="#038bfa" stroke="#038bfa"/><path d="M1784,863L1905,1008L1827,785Z" fill="#088efa" stroke="#088efa"/><path d="M1827,785L1905,1008L2039,816Z" fill="#098dfa" stroke="#098dfa"/><path d="M2039,816L1905,1008L2055,973Z" fill="#058afa" stroke="#058afa"/><path d="M-80,927L-38,1316L-48,1122Z" fill="#3da3f9" stroke="#3da3f9"/><path d="M-80,927L-48,1122L135,1033Z" fill="#3ba6f9" stroke="#3ba6f9"/><path d="M135,1033L-48,1122L53,1131Z" fill="#39a3f9" stroke="#39a3f9"/><path d="M135,1033L53,1131L194,1119Z" fill="#37a1f9" stroke="#37a1f9"/><path d="M135,1033L194,1119L220,1018Z" fill="#35a2f9" stroke="#35a2f9"/><path d="M220,1018L194,1119L365,1026Z" fill="#32a1f9" stroke="#32a1f9"/><path d="M365,1026L194,1119L417,1114Z" fill="#309ff9" stroke="#309ff9"/><path d="M365,1026L417,1114L579,944Z" fill="#2c9ef9" stroke="#2c9ef9"/><path d="M579,944L417,1114L549,1167Z" fill="#2a9cfa" stroke="#2a9cfa"/><path d="M579,944L549,1167L686,1108Z" fill="#279afa" stroke="#279afa"/><path d="M579,944L686,1108L657,950Z" fill="#269cfa" stroke="#269cfa"/><path d="M657,950L686,1108L812,1001Z" fill="#239bfa" stroke="#239bfa"/><path d="M812,1001L686,1108L837,1133Z" fill="#2198fa" stroke="#2198fa"/><path d="M812,1001L837,1133L942,933Z" fill="#1e98fa" stroke="#1e98fa"/><path d="M942,933L837,1133L958,1167Z" fill="#1d95fa" stroke="#1d95fa"/><path d="M942,933L958,1167L1160,991Z" fill="#1995fa" stroke="#1995fa"/><path d="M1160,991L958,1167L1160,1162Z" fill="#1792fa" stroke="#1792fa"/><path d="M1160,991L1160,1162L1287,1023Z" fill="#1391fa" stroke="#1391fa"/><path d="M1287,1023L1160,1162L1263,1181Z" fill="#128ffa" stroke="#128ffa"/><path d="M1287,1023L1263,1181L1420,1098Z" fill="#0f8ffa" stroke="#0f8ffa"/><path d="M1287,1023L1420,1098L1401,962Z" fill="#0e90fa" stroke="#0e90fa"/><path d="M1401,962L1420,1098L1606,1107Z" fill="#0a8efa" stroke="#0a8efa"/><path d="M1401,962L1606,1107L1620,918Z" fill="#098ffa" stroke="#098ffa"/><path d="M1620,918L1606,1107L1666,1117Z" fill="#058bfa" stroke="#058bfa"/><path d="M1620,918L1666,1117L1755,1034Z" fill="#048bfa" stroke="#048bfa"/><path d="M1755,1034L1666,1117L1867,1169Z" fill="#0187fa" stroke="#0187fa"/><path d="M1755,1034L1867,1169L1905,1008Z" fill="#0087fa" stroke="#0087fa"/><path d="M1905,1008L1867,1169L2035,1081Z" fill="#0086fa" stroke="#0086fa"/><path d="M1905,1008L2035,1081L2055,973Z" fill="#0087fa" stroke="#0087fa"/><path d="M2055,973L2035,1081L2048,1291Z" fill="#0083fa" stroke="#0083fa"/><path d="M-48,1122L-38,1316L37,1312Z" fill="#3b9ff9" stroke="#3b9ff9"/><path d="M-48,1122L37,1312L53,1131Z" fill="#3aa0f9" stroke="#3aa0f9"/><path d="M53,1131L37,1312L194,1119Z" fill="#389ff9" stroke="#389ff9"/><path d="M194,1119L37,1312L251,1332Z" fill="#359bf9" stroke="#359bf9"/><path d="M194,1119L251,1332L417,1245Z" fill="#319af9" stroke="#319af9"/><path d="M194,1119L417,1245L417,1114Z" fill="#309cf9" stroke="#309cf9"/><path d="M417,1114L417,1245L549,1167Z" fill="#2c9af9" stroke="#2c9af9"/><path d="M549,1167L417,1245L521,1252Z" fill="#2a98fa" stroke="#2a98fa"/><path d="M549,1167L521,1252L646,1278Z" fill="#2896fa" stroke="#2896fa"/><path d="M549,1167L646,1278L686,1108Z" fill="#2696fa" stroke="#2696fa"/><path d="M686,1108L646,1278L837,1133Z" fill="#2395fa" stroke="#2395fa"/><path d="M837,1133L646,1278L854,1330Z" fill="#2192fa" stroke="#2192fa"/><path d="M837,1133L854,1330L958,1167Z" fill="#1e91fa" stroke="#1e91fa"/><path d="M958,1167L854,1330L984,1297Z" fill="#1c8ffa" stroke="#1c8ffa"/><path d="M958,1167L984,1297L1089,1311Z" fill="#1a8efa" stroke="#1a8efa"/><path d="M958,1167L1089,1311L1160,1162Z" fill="#188ffa" stroke="#188ffa"/><path d="M1160,1162L1089,1311L1263,1181Z" fill="#148dfa" stroke="#148dfa"/><path d="M1263,1181L1089,1311L1328,1277Z" fill="#128bfa" stroke="#128bfa"/><path d="M1263,1181L1328,1277L1420,1098Z" fill="#0f8bfa" stroke="#0f8bfa"/><path d="M1420,1098L1328,1277L1483,1257Z" fill="#0c89fa" stroke="#0c89fa"/><path d="M1420,1098L1483,1257L1606,1107Z" fill="#098afa" stroke="#098afa"/><path d="M1606,1107L1483,1257L1571,1254Z" fill="#0887fa" stroke="#0887fa"/><path d="M1606,1107L1571,1254L1666,1117Z" fill="#0688fa" stroke="#0688fa"/><path d="M1666,1117L1571,1254L1776,1263Z" fill="#0485fa" stroke="#0485fa"/><path d="M1666,1117L1776,1263L1867,1169Z" fill="#0185fa" stroke="#0185fa"/><path d="M1867,1169L1776,1263L1901,1262Z" fill="#0082fa" stroke="#0082fa"/><path d="M1867,1169L1901,1262L2035,1081Z" fill="#0083fa" stroke="#0083fa"/><path d="M2035,1081L1901,1262L2048,1291Z" fill="#0080fa" stroke="#0080fa"/><path d="M-38,1316L251,1332L37,1312Z" fill="#389af9" stroke="#389af9"/><path d="M251,1332L854,1330L646,1278Z" fill="#2893fa" stroke="#2893fa"/><path d="M251,1332L646,1278L521,1252Z" fill="#2b95f9" stroke="#2b95f9"/><path d="M251,1332L521,1252L417,1245Z" fill="#2e97f9" stroke="#2e97f9"/><path d="M854,1330L2048,1291L1089,1311Z" fill="#0f87fa" stroke="#0f87fa"/><path d="M854,1330L1089,1311L984,1297Z" fill="#1b8dfa" stroke="#1b8dfa"/><path d="M1089,1311L2048,1291L1328,1277Z" fill="#0a85fa" stroke="#0a85fa"/><path d="M1328,1277L2048,1291L1776,1263Z" fill="#0282fa" stroke="#0282fa"/><path d="M1328,1277L1776,1263L1571,1254Z" fill="#0885fa" stroke="#0885fa"/><path d="M1328,1277L1571,1254L1483,1257Z" fill="#0b87fa" stroke="#0b87fa"/><path d="M1776,1263L2048,1291L1901,1262Z" fill="#007ffa" stroke="#007ffa"/></g></svg>